<svg version="1.1" xmlns="http://www.w3.org/2000/svg" xml:space="preserve">
    <defs>
        <!-- Color icons -->
        <symbol id="llama" viewBox="0 0 13.79 14.91">
          <path fill="#11a0e3" d="M4.12 9.71a1 1 0 0 1-.41.29c-1.11.37-1.61-1.42-.47-1.87.48-.2 1.08.16 1.13.72q.02.2-.04.43a3 3 0 0 1 2.08-1.3 3.1 3.1 0 0 1 3.05 1.3c-.12-.45.01-.97.53-1.16 1.14-.41 1.69 1.49.65 1.87-.4.14-.74 0-.96-.26a2.3 2.3 0 0 1-.44 2.41q-.35.38-.81.58c-.86.4-2.42.35-3.26-.09a2.3 2.3 0 0 1-1.05-2.92m9.67-1.29v.3q-.02.37-.08.7c-.11.58-.28.9-.54 1.36q.09.17.16.35c.2.51.33 1.09.35 1.65q.02.64-.04 1.27l-.11.61-.05.18.02-.01-.01.08h-1.62l.05-.07c.47-.78.45-2.73-.1-3.47-.18-.24-.29-.4-.25-.74q.06-.28.24-.49c.13-.18.24-.33.33-.54.61-1.31-.14-3.23-1.44-3.7-.39-.14-.57-.1-.96-.07-.43.04-.62-.18-.79-.59A2.3 2.3 0 0 0 7.32 4a2.3 2.3 0 0 0-2.23.86 1 1 0 0 0-.26.42c-.31.74-.66.51-1.22.52-.84.01-1.56.71-1.9 1.5a3 3 0 0 0-.05 2.33c.18.39.56.66.57 1.09a1 1 0 0 1-.2.58c-.13.18-.21.33-.29.55a4.6 4.6 0 0 0-.05 2.53c.07.26.14.39.24.53H.32l-.03-.08H.3a6.4 6.4 0 0 1 .16-3.72l.16-.33c-.35-.66-.52-.95-.6-1.79L0 8.66v-.19a4.7 4.7 0 0 1 1.33-3.19l.21-.18c.01-.1-.04-.36-.05-.44q-.07-.6-.05-1.21C1.47 2.31 1.83.04 3.21.01c1.27-.04 1.8 1.67 1.95 2.86l.14-.08q1.34-.68 2.73-.19.24.08.48.2l.11.06C8.74 1.84 9.2.44 10.08.09s1.54.37 1.87 1.17q.23.56.32 1.18.1.7.08 1.4c-.01.42-.08.81-.11 1.22l.39.41a4.6 4.6 0 0 1 1.16 2.95M2.9 4.36l.27-.07q.2-.03.41-.03h.13l.03-.05c.15-.24-.05-1.45-.12-1.74a3 3 0 0 0-.34-.85c-.3.38-.41 1.61-.41 1.99 0 .19-.01.52.03.75m7.18-.11a4 4 0 0 1 .79.1c.03-.24.06-.51.05-.71v-.03c0-.35-.12-1.64-.41-2-.2.25-.36.93-.41 1.16-.04.26-.18 1.23-.05 1.44zM6.7 9.15c-.62.05-1.29.4-1.55 1.03-.24.6.03 1.09.55 1.38.45.25.94.22 1.43.21.47-.01.83-.07 1.21-.37.44-.37.49-.93.2-1.42-.39-.65-1.16-.88-1.84-.83m.18.61c.09-.05.1-.1.27-.11.55-.04.75.56.35.96l-.12.11.01.14c.05.46-.2.68-.61.63-.37-.05-.46-.36-.4-.71l.01-.08q-.1-.06-.19-.16a.54.54 0 0 1 .1-.83.5.5 0 0 1 .43-.03z"/>
        </symbol>
        <symbol id="openai" viewBox="0 0 11.81 11.81">
          <path fill="#0fa47e" d="M5.9 0c3.27 0 5.91 2.64 5.91 5.9 0 3.27-2.64 5.91-5.91 5.91C2.64 11.81 0 9.17 0 5.9 0 2.64 2.64 0 5.9 0m.26 9.38c.06.09.14.16.23.22.18.13.4.2.64.2.31 0 .59-.13.79-.33l.02-.02c.19-.2.31-.48.31-.77V6.62l-.9-.51v2.38c0 .15-.08.3-.22.38zm2.89-1.99c.09-.01.18-.04.27-.08.19-.1.36-.25.48-.45.05-.09.09-.18.11-.27.03-.1.04-.19.04-.29 0-.2-.05-.39-.15-.56-.1-.16-.24-.31-.41-.41l-1.71-1-.88.51 1.99 1.1c.15.08.26.23.26.41zM5.9 5.36l-.44.25v.58l.45.26.44-.25v-.59zm-.44-.78 1.96-1.13c.14-.1.33-.11.49-.02l.88.52.01-.02c.04-.12.07-.25.07-.38 0-.31-.13-.6-.33-.8-.21-.2-.49-.33-.8-.33-.1 0-.2.02-.29.04-.1.03-.19.06-.27.11L5.46 3.58zm4.11-.18.27.16c.31.18.56.43.74.73.17.31.27.65.27 1.01 0 .17-.03.35-.07.52-.05.17-.12.33-.2.48-.22.37-.52.65-.88.82-.2.09-.42.16-.65.18v.38c0 .54-.22 1.03-.57 1.4l-.02.02c-.37.37-.87.6-1.43.6-.42 0-.82-.13-1.16-.37-.19-.13-.36-.3-.49-.49l-.3.17c-.16.09-.32.16-.49.21-.17.04-.35.06-.52.06-.56 0-1.07-.22-1.43-.59-.37-.37-.6-.87-.6-1.43 0-.23.05-.46.13-.68.02-.07.05-.13.08-.2l-.29-.16c-.3-.18-.55-.44-.73-.73-.17-.31-.27-.65-.27-1.01 0-.17.03-.35.07-.52.05-.17.11-.33.2-.48.22-.37.52-.65.88-.82.2-.1.42-.16.65-.18v-.35c0-.54.22-1.03.57-1.4l.02-.03c.37-.36.87-.59 1.43-.59.42 0 .82.13 1.16.36.19.14.36.31.49.5l.3-.17c.16-.09.32-.16.49-.21.17-.04.35-.07.52-.07.56 0 1.06.23 1.43.6.37.36.59.87.59 1.43 0 .23-.04.46-.12.68-.02.06-.04.12-.07.17M4.82 6.85c-.03-.01-.05-.02-.08-.04l-1.72-.99a.458.458 0 0 1-.26-.41V4.38q-.135.03-.27.09c-.19.1-.36.25-.48.45-.05.09-.09.18-.11.27-.03.09-.04.19-.04.29 0 .2.05.39.15.56.1.16.23.3.41.4l1.69 1L5 6.95zm-.26-1.18V3.32c0-.15.08-.3.22-.38l.87-.51c-.06-.09-.14-.16-.23-.22-.18-.13-.4-.2-.64-.2-.31 0-.59.13-.79.33l-.02.02c-.2.2-.31.47-.31.77v2.02zm1.59 1.67c-.02.01-.04.02-.05.02l-1.75.98c-.14.09-.32.1-.47.01l-.86-.51-.01.04c-.04.12-.07.25-.07.38 0 .31.13.59.33.8.2.2.49.33.8.33.1 0 .2-.02.29-.04.09-.03.19-.06.27-.11l1.72-1.01V7.22z"/>
        </symbol>
        <symbol id="openrouter" viewBox="0 0 24 24">
            <path fill="#6566F1" d="M16.804 1.957l7.22 4.105v.087L16.73 10.21l.017-2.117-.821-.03c-1.059-.028-1.611.002-2.268.11-1.064.175-2.038.577-3.147 1.352L8.345 11.03c-.284.195-.495.336-.68.455l-.515.322-.397.234.385.23.53.338c.476.314 1.17.796 2.701 1.866 1.11.775 2.083 1.177 3.147 1.352l.3.045c.694.091 1.375.094 2.825.033l.022-2.159 7.22 4.105v.087L16.589 22l.014-1.862-.635.022c-1.386.042-2.137.002-3.138-.162-1.694-.28-3.26-.926-4.881-2.059l-2.158-1.5a21.997 21.997 0 00-.755-.498l-.467-.28a55.927 55.927 0 00-.76-.43C2.908 14.73.563 14.116 0 14.116V9.888l.14.004c.564-.007 2.91-.622 3.809-1.124l1.016-.58.438-.274c.428-.28 1.072-.726 2.686-1.853 1.621-1.133 3.186-1.78 4.881-2.059 1.152-.19 1.974-.213 3.814-.138l.02-1.907z"/>
        </symbol>
        <!-- Monochrome icons -->
        <symbol id="expand" viewBox="0 0 18.9 17.5">
            <path fill="#323232" d="m9.5 17.5 2.8-3 3-3h-3.1l-1.7 1.8V8.2h-2v5l-1.7-1.6h-3l2.8 3zM0 6.4V4.2h19v2.2zM0 0h18.9v2.1H0z"/>
        </symbol>
        <symbol id="insider-mono" viewBox="0 0 75.894 67.833">
            <path fill="#323232" d="M67.477 65.58c1.24 2.143 4.022 2.894 6.165 1.654 2.142-1.241 2.894-4.022 1.654-6.165L41.041 1.855C39.702.021 37.139-.561 35.135.599c-2.142 1.241-2.894 4.022-1.654 6.165C44.796 26.365 56.188 46.023 67.477 65.58zM23.113 22.071.599 61.069c-1.241 2.143-.489 4.925 1.654 6.165 2.143 1.24 4.924.489 6.165-1.654l19.896-34.461 3.835 6.669a4.522 4.522 0 0 0 6.158 1.662 4.524 4.524 0 0 0 1.663-6.159l-1.246-2.167-.016-.027-5.189-9.026h-.02l-1.27-2.201c-.955-1.671-2.261-2.369-4.057-2.369-1.797 0-2.817.738-3.771 2.369l-1.271 2.201h-.017zm32.9 38.995-7.26-12.552a4.43 4.43 0 0 0-2.105-1.879 4.505 4.505 0 0 0-2.405-.714H28.416a4.523 4.523 0 0 0-4.511 4.51 4.524 4.524 0 0 0 4.511 4.511h13.646l6.133 10.635c1.24 2.142 4.022 2.894 6.165 1.654 2.142-1.241 2.894-4.023 1.653-6.165z"/>
        </symbol>
        <symbol id="plus-one" viewBox="0 0 54.5 54.5">
            <path fill="#323232" d="M14 40.8V31H4v-6.8h10v-9.8h6.7v9.8h10V31h-10v9.8zm35.4 5.4H42V19a26 26 0 0 1-9.4 5.5v-6.6a21 21 0 0 0 6.3-3.5q3.2-2.6 4.5-6h5.9z"/>
        </symbol>
        <symbol id="shrink" viewBox="0 0 26.3 24.3">
            <path fill="#323232" d="m13.2 11.4 4 4.1 4 4.1h-4.3l-2.3-2.4v7.1h-2.9v-7.1l-2.3 2.4H5.2l4-4.1zM0 0h26.3v3H0zm0 5.9h13.2v3H0z"/>
        </symbol>
        <symbol id="summary" viewBox="0 0 18.87 19.46">
            <path fill="#323232" d="M0 4.19h13v2.22H0zM18.87 8.9v1.66a2 2 0 0 0-1.28.42q-.5.4-.66 1.1-.15.7-.17 2.38 0 1.7-.05 2.23a4 4 0 0 1-.34 1.37 3 3 0 0 1-.62.82q-.36.3-.93.47-.38.1-1.26.11H13v-1.6h.31q1.05 0 1.4-.38t.34-1.7q0-2.53.08-3.2a4 4 0 0 1 .65-1.8q.5-.67 1.39-1.05a3.4 3.4 0 0 1-1.66-1.47q-.48-.91-.48-3.09 0-1.97-.02-2.36-.07-.68-.4-.94-.34-.27-1.3-.27H13V0h.56q.99 0 1.44.16.65.23 1.07.75t.55 1.33q.13.8.14 2.62t.17 2.52q.16.69.66 1.09.49.41 1.28.43M13 10.84H0V8.62h13zM0 15.27v-2.22h13v2.22z"/>
        </symbol>
    </defs>
</svg>