<svg xmlns="http://www.w3.org/2000/svg" xml:space="preserve" viewBox="0 0 75.894 67.833"><path d="M67.477 65.58c1.24 2.143 4.022 2.894 6.165 1.654 2.142-1.241 2.894-4.022 1.654-6.165L41.041 1.855C39.702.021 37.139-.561 35.135.599c-2.142 1.241-2.894 4.022-1.654 6.165C44.796 26.365 56.188 46.023 67.477 65.58zM23.113 22.071.599 61.069c-1.241 2.143-.489 4.925 1.654 6.165 2.143 1.24 4.924.489 6.165-1.654l19.896-34.461 3.835 6.669a4.522 4.522 0 0 0 6.158 1.662 4.524 4.524 0 0 0 1.663-6.159l-1.246-2.167-.016-.027-5.189-9.026h-.02l-1.27-2.201c-.955-1.671-2.261-2.369-4.057-2.369-1.797 0-2.817.738-3.771 2.369l-1.271 2.201h-.017zm32.9 38.995-7.26-12.552a4.43 4.43 0 0 0-2.105-1.879 4.505 4.505 0 0 0-2.405-.714H28.416a4.523 4.523 0 0 0-4.511 4.51 4.524 4.524 0 0 0 4.511 4.511h13.646l6.133 10.635c1.24 2.142 4.022 2.894 6.165 1.654 2.142-1.241 2.894-4.023 1.653-6.165z" style="fill:#3282CA"/></svg>